<svg width="625" height="407" viewBox="0 0 625 407" fill="none" xmlns="http://www.w3.org/2000/svg">
<path d="M313.651 194.215C312.959 194.215 311.503 194.492 309.287 195.046C307.348 195.531 305.303 196.176 303.151 196.979L301.294 197.686C299.142 198.489 297.097 199.133 295.158 199.618C292.942 200.172 291.279 200.726 290.171 201.28C290.171 202.25 289.617 202.873 288.509 203.15C287.401 203.427 286.777 203.912 286.639 204.604L287.054 206.268C286.638 206.406 285.668 206.891 284.145 207.722C282.622 208.553 280.959 209.592 279.158 210.839C277.357 212.086 275.764 213.193 274.379 214.163C272.994 215.133 272.024 215.895 271.47 216.449C268.976 216.449 265.582 217.28 261.288 218.942C256.994 220.605 252.283 222.683 247.158 225.177C242.033 227.67 236.977 230.648 231.99 234.111C227.003 237.575 222.293 241.038 217.86 244.501C213.428 247.964 210.033 251.428 207.679 254.891C205.324 258.354 203.939 261.402 203.523 264.034L208.575 269.382C220.523 273.999 232.868 276.727 245.5 276.727C282.163 276.727 316.418 253.775 345.531 228.191C345.502 228.156 345.472 228.121 345.442 228.086C343.919 226.285 342.741 224.345 341.91 222.268C341.079 220.19 340.594 218.111 340.456 216.033C340.456 214.648 340.733 213.193 341.287 211.67C341.841 210.146 342.326 208.692 342.741 207.307L338.378 208.345C336.023 202.942 332.836 199.271 328.819 197.332C324.802 195.393 319.746 194.353 313.651 194.215ZM245.5 0C140.229 0.000254463 54.7975 84.9462 54.0057 190.033C54.3997 139.651 75.2395 159.745 108.832 193.203C111.18 192.779 113.584 192.216 116.044 191.514C119.923 190.405 123.386 188.743 126.433 186.526L125.186 185.487C126.987 185.903 128.788 186.458 130.589 187.15C132.389 187.843 134.122 188.604 135.784 189.436C137.446 190.267 139.247 190.822 141.186 191.099C143.126 191.376 144.996 191.653 146.797 191.93L150.121 191.514L149.498 190.06C151.437 190.614 153.515 191.306 155.731 192.137C157.948 192.968 160.095 193.384 162.173 193.384C163.558 193.384 165.567 192.899 168.199 191.93C170.831 190.96 173.463 189.782 176.095 188.396C178.727 187.011 181.082 185.488 183.16 183.825C185.238 182.163 186.276 180.57 186.276 179.046L185.861 178.423C186.554 177.592 187.454 176.829 188.562 176.137C189.67 175.444 190.709 174.752 191.679 174.06C192.648 173.367 193.55 172.605 194.381 171.773C195.212 170.942 195.557 169.972 195.419 168.864L193.134 166.994L197.913 166.371L199.575 160.137C199.298 160.829 198.675 161.106 197.705 160.968C196.735 160.829 195.973 160.552 195.419 160.137L202.899 156.188L197.705 142.89C199.644 135.686 200.129 130.145 199.159 126.267C198.189 122.388 196.319 119.201 193.549 116.708C190.778 114.215 187.731 111.721 184.406 109.228C181.082 106.734 177.687 103.339 174.224 99.0449L174.848 96.5518L161.134 79.9287L158.017 79.5127C154.139 79.5127 149.775 79.3737 144.927 79.0967C140.078 78.8196 135.161 78.3352 130.174 77.6426C125.187 76.9499 120.269 76.2571 115.421 75.5645C110.572 74.8718 106.139 73.9715 102.122 72.8633C106.555 67.5993 111.196 62.6122 116.044 57.9023C120.892 53.1924 126.087 48.6898 131.628 44.3955C133.151 44.9496 135.022 45.712 137.238 46.6816C139.454 47.6513 141.671 48.8981 143.888 50.4219C146.104 51.9454 147.835 53.6077 149.082 55.4082C150.329 57.209 151.091 59.0803 151.368 61.0195L150.121 64.9668C152.614 68.9838 155.385 71.4774 158.432 72.4473C161.48 73.4169 164.597 73.9718 167.783 74.1104C170.969 74.2489 174.294 74.2489 177.757 74.1104C181.22 73.9718 184.545 74.5953 187.731 75.9805L191.056 68.915L187.938 56.8633L191.472 51.668L155.523 40.4473C157.047 36.5687 159.541 33.6591 163.004 31.7197C166.467 29.7804 170.277 28.8106 174.432 28.8105V26.7334L162.797 24.8633C175.679 18.491 189.047 13.6421 202.899 10.3174C216.752 6.99271 230.951 5.33011 245.496 5.33008C257.548 5.33008 269.462 6.50733 281.236 8.8623C293.011 11.2173 304.37 14.6121 315.313 19.0449C326.257 23.4778 336.855 29.0187 347.105 35.668C357.356 42.3173 366.706 49.7988 375.156 58.1104C371.555 58.1104 368.784 59.0108 366.845 60.8115C364.905 62.6122 363.104 64.6207 361.442 66.8369C359.78 69.0532 358.049 71.0625 356.248 72.8633C354.447 74.6642 352.022 75.6339 348.974 75.7725L345.65 73.2793L346.066 68.707L339.209 58.9414L344.611 43.5645C343.919 43.1489 342.88 42.4558 341.495 41.4863C340.11 40.5168 338.931 40.0322 337.962 40.0322C333.806 40.0322 330.62 40.2397 328.404 40.6553C326.188 41.0709 324.248 41.8332 322.586 42.9414C320.924 44.0496 319.469 45.643 318.223 47.7207C316.976 49.7985 315.036 52.4303 312.404 55.6162L304.924 49.7979C303.538 50.352 301.322 51.2523 298.274 52.499C295.227 53.7458 292.11 55.2704 288.924 57.0713C285.738 58.8721 283.036 60.7424 280.82 62.6816C278.604 64.6208 277.427 66.4218 277.288 68.084C277.288 70.1617 278.05 71.8246 279.573 73.0713C281.097 74.318 283.106 75.3573 285.599 76.1885C288.093 77.0196 290.656 77.643 293.288 78.0586C295.92 78.4742 298.552 79.0281 301.183 79.7207C303.815 80.4133 305.825 81.1062 307.21 81.7988C308.595 82.4914 309.426 83.6691 309.703 85.3311L297.651 89.2793C300.422 91.6341 303.4 93.7814 306.586 95.7207C309.772 97.6601 313.097 99.4607 316.56 101.123L315.728 104.656L334.846 112.137V117.955L336.3 118.578L335.261 111.306L336.092 111.098C337.061 111.098 337.616 111.305 337.755 111.721C337.893 112.136 337.962 112.622 337.962 113.176C337.962 113.73 337.824 114.284 337.547 114.838C337.27 115.392 337.2 115.808 337.339 116.085L340.04 114.63L339.625 115.461C339.625 115.876 339.416 116.5 339.001 117.331C338.585 118.162 338.031 118.925 337.339 119.617C336.646 120.31 336.092 121.003 335.677 121.695C335.261 122.387 334.984 122.734 334.846 122.734C334.846 123.15 335.123 123.565 335.677 123.98C336.231 124.396 336.924 124.673 337.755 124.812C338.585 124.95 339.14 125.159 339.417 125.436C339.694 125.712 339.694 125.781 339.417 125.643C337.478 125.643 337.062 125.782 338.17 126.059C339.278 126.336 341.01 127.029 343.365 128.137C345.72 129.245 347.867 130.838 349.806 132.916C351.746 134.994 352.854 138.042 353.131 142.059C353.131 144.413 353.061 146.7 352.923 148.916C352.784 151.132 352.854 153.419 353.131 155.773C355.07 150.509 357.98 146.491 361.858 143.721C365.737 140.95 370.447 139.566 375.987 139.565L384.923 140.396L380.558 143.306C382.913 143.029 385.338 142.752 387.832 142.475C390.325 142.198 392.888 142.128 395.519 142.267C398.151 142.405 400.507 142.959 402.585 143.929C404.663 144.898 406.74 146.354 408.818 148.293L410.064 157.644C410.064 162.076 409.095 165.678 407.156 168.448C405.217 171.219 401.823 172.674 396.974 172.812C392.819 172.812 388.732 172.189 384.715 170.942C380.698 169.696 376.75 168.24 372.871 166.578C374.118 169.626 375.503 172.535 377.026 175.306C378.55 178.076 379.659 181.125 380.351 184.449L377.65 185.695C374.326 183.479 371.277 183.133 368.507 184.656C365.736 186.18 363.035 188.397 360.403 191.306C357.771 194.215 355.07 197.194 352.3 200.241C349.529 203.289 346.551 205.505 343.365 206.891L350.43 210.631L367.053 201.28C366.914 201.557 366.775 202.181 366.637 203.15C366.498 204.12 366.568 204.328 366.845 203.773L374.325 191.099C377.946 190.985 381.753 190.502 385.744 189.649C417.235 158.392 436.614 141.463 436.994 190.033C436.202 84.9461 350.771 0.000145702 245.5 0ZM327.157 171.565C321.478 171.565 316.283 172.535 311.573 174.475C313.512 175.167 315.452 175.721 317.391 176.137C319.331 176.552 321.339 176.829 323.417 176.968C326.187 176.968 328.681 176.691 330.897 176.137C330.205 175.029 329.512 174.337 328.819 174.06C328.127 173.782 327.573 172.951 327.157 171.565ZM355.209 162.215C353.408 162.215 351.399 162.492 349.182 163.046C346.966 163.6 344.749 164.362 342.533 165.332C340.317 166.302 338.101 167.202 335.885 168.033C333.668 168.864 331.659 169.695 329.858 170.526L333.183 170.942C334.291 171.081 335.469 171.15 336.716 171.15C339.071 171.15 341.218 170.804 343.157 170.111C345.096 169.419 346.897 168.518 348.559 167.41C350.222 166.302 351.884 165.47 353.547 164.916C355.209 164.362 356.733 163.946 358.118 163.669C359.503 163.669 360.75 163.947 361.858 164.501C362.966 165.055 364.075 165.679 365.182 166.371C365.183 165.817 365.667 165.539 366.637 165.539C365.667 164.57 363.866 163.808 361.234 163.254C358.603 162.7 356.594 162.353 355.209 162.215ZM99.0057 76.8115C99.2827 78.0578 99.6284 78.9586 100.044 79.5127C100.459 80.0668 100.737 81.3138 100.876 83.2529C100.876 84.4996 100.39 85.677 99.4207 86.7852C98.4511 87.8934 97.2042 89.0021 95.6805 90.1104C94.1568 91.2185 92.6329 92.0494 91.1092 92.6035C89.5854 93.1576 88.2692 93.643 87.161 94.0586C89.1003 91.0111 91.04 88.1015 92.9793 85.3311C94.9186 82.5605 96.9279 79.7206 99.0057 76.8115ZM101.499 73.6943C101.499 74.8023 101.707 75.5648 102.122 75.9805H100.876C100.322 75.9805 99.9058 76.05 99.6288 76.1885L101.499 73.6943Z" fill="#D1B200"/>
<path d="M426.729 161.805C426.139 161.575 425.116 161.451 423.317 162.014C419.487 163.212 414.197 166.848 407.309 172.879C400.56 178.787 392.837 186.476 384.14 195.141C366.856 212.36 345.961 233.206 322.688 249.715C299.434 266.21 273.308 278.747 245.5 278.747C217.692 278.747 191.566 266.21 168.312 249.715C145.039 233.206 124.144 212.36 106.86 195.141C98.163 186.476 90.4396 178.787 83.6914 172.879C76.8028 166.848 71.5134 163.212 67.6826 162.014C65.8841 161.451 64.8609 161.575 64.2705 161.805C63.7174 162.02 62.8692 162.591 61.9482 164.36C59.9548 168.189 58.5752 175.774 58.5752 188.952C58.5752 292.191 142.264 375.883 245.5 375.883C348.736 375.883 432.425 292.191 432.425 188.952C432.425 175.774 431.045 168.189 429.052 164.36C428.131 162.591 427.283 162.02 426.729 161.805Z" stroke="#D1B200" stroke-width="9.14963"/>
<path d="M3.05176e-05 178.775C80.4299 58.4336 158.583 97.0964 325 252.775C467.191 363.369 539.475 410.274 625 405.775H3.05176e-05V178.775Z" fill="#023047" fill-opacity="0.8"/>
<path d="M294.443 315.928L253.214 284.781L240.678 292.794L274.927 319.16L245.589 342.035L252.697 350.307L294.443 315.928ZM154.6 273.02L188.978 363.748L205.78 360L171.143 267.721L154.6 273.02ZM117.049 342.035L87.711 319.16L121.96 292.794L109.424 284.781L68.1955 315.928L109.941 350.307L117.049 342.035Z" fill="#D1B200"/>
</svg>
