<svg width="21" height="21" viewBox="0 0 21 21" fill="none" xmlns="http://www.w3.org/2000/svg">
<path fill-rule="evenodd" clip-rule="evenodd" d="M10.512 13.2062L17.584 20.2064C17.9593 20.5778 18.4683 20.7865 18.999 20.7865C19.5297 20.7865 20.0386 20.5778 20.4139 20.2064C20.7892 19.8349 21 19.3311 21 18.8058C21 18.2805 20.7892 17.7767 20.4139 17.4052L13.3392 10.4051L20.4126 3.40495C20.5983 3.22102 20.7456 3.00269 20.8461 2.76241C20.9466 2.52214 20.9983 2.26463 20.9982 2.00458C20.9981 1.74453 20.9463 1.48705 20.8457 1.24682C20.7451 1.00659 20.5977 0.788327 20.4119 0.60449C20.2261 0.420653 20.0055 0.274842 19.7628 0.175383C19.52 0.0759245 19.2599 0.0247651 18.9972 0.0248264C18.7344 0.0248877 18.4743 0.0761681 18.2316 0.17574C17.9889 0.275312 17.7684 0.421226 17.5827 0.60515L10.512 7.6053L3.4399 0.60515C3.25546 0.415951 3.0348 0.265004 2.79079 0.16112C2.54679 0.0572346 2.28432 0.00249076 2.01871 8.30352e-05C1.7531 -0.00232469 1.48967 0.0476514 1.24378 0.147096C0.997896 0.24654 0.774479 0.39346 0.586569 0.579284C0.398659 0.765109 0.250018 0.986115 0.149321 1.22941C0.0486234 1.4727 -0.0021145 1.73341 6.75023e-05 1.99632C0.0022495 2.25923 0.0573075 2.51908 0.162029 2.7607C0.266751 3.00232 0.41904 3.22088 0.610009 3.40363L7.68474 10.4051L0.611343 17.4066C0.420374 17.5893 0.268086 17.8079 0.163364 18.0495C0.0586416 18.2911 0.003583 18.551 0.001401 18.8139C-0.000780998 19.0768 0.0499569 19.3375 0.150654 19.5808C0.251352 19.8241 0.399992 20.0451 0.587902 20.2309C0.775812 20.4167 0.999229 20.5637 1.24512 20.6631C1.491 20.7625 1.75444 20.8125 2.02005 20.8101C2.28566 20.8077 2.54812 20.753 2.79213 20.6491C3.03613 20.5452 3.25679 20.3942 3.44123 20.205L10.512 13.2062Z" fill="#023047"/>
</svg>
