<svg width="40" height="40" viewBox="0 0 40 40" fill="none" xmlns="http://www.w3.org/2000/svg">
<path d="M36.453 1.50928H3.5499C2.4229 1.50928 1.50928 2.4229 1.50928 3.5499V36.453C1.50928 37.58 2.4229 38.4937 3.5499 38.4937H36.453C37.58 38.4937 38.4937 37.58 38.4937 36.453V3.5499C38.4937 2.4229 37.58 1.50928 36.453 1.50928Z" fill="#3D5A98"/>
<path d="M27.0251 38.4907V24.1688H31.8313L32.5501 18.5875H27.0251V15.025C27.0251 13.4094 27.4751 12.3063 29.7907 12.3063H32.747V7.30628C31.3154 7.15736 29.8768 7.08642 28.4376 7.09378C24.1813 7.09378 21.2501 9.68753 21.2501 14.4719V18.5875H16.4438V24.1688H21.2501V38.4907H27.0251Z" fill="white"/>
</svg>
