<svg width="36" height="36" viewBox="0 0 36 36" fill="none" xmlns="http://www.w3.org/2000/svg">
<path d="M18.926 35.9766C18.6194 35.9921 18.3107 35.999 18.0002 35.999V36C18.3107 36 18.6194 35.9921 18.926 35.9766ZM20.7415 35.793C20.5923 35.8158 20.4425 35.8364 20.2922 35.8555C20.4425 35.8364 20.5923 35.8158 20.7415 35.793ZM23.054 35.2793C22.8853 35.3286 22.7159 35.3765 22.5452 35.4209C22.7159 35.3765 22.8853 35.3286 23.054 35.2793ZM31.3235 30.1025C31.1887 30.2508 31.051 30.3963 30.9114 30.54C31.051 30.3963 31.1887 30.2508 31.3235 30.1025ZM24.4055 18.2549C24.3404 18.2549 24.2036 18.2809 23.9954 18.333C23.8912 18.359 23.7837 18.39 23.6731 18.4258L22.9895 18.6699C22.8788 18.7057 22.7714 18.7367 22.6672 18.7627C22.4589 18.8148 22.3026 18.8669 22.1985 18.9189C22.1984 19.01 22.1463 19.0687 22.0422 19.0947C21.9381 19.1208 21.8795 19.1664 21.8665 19.2314L21.9055 19.3877C21.8665 19.4007 21.7753 19.4463 21.6321 19.5244C21.4889 19.6025 21.3326 19.7002 21.1633 19.8174C20.9941 19.9346 20.8443 20.0387 20.7141 20.1299C20.5839 20.221 20.4927 20.2927 20.4407 20.3447C20.2063 20.3447 19.8873 20.4229 19.4836 20.5791C19.08 20.7353 18.6372 20.9307 18.1555 21.165C17.6738 21.3994 17.1984 21.6794 16.7297 22.0049C16.2611 22.3304 15.8182 22.656 15.4016 22.9814C14.985 23.3069 14.6659 23.6325 14.4446 23.958C14.2233 24.2834 14.093 24.57 14.054 24.8174L14.5256 25.3154C15.6499 25.7504 16.8106 26.0097 17.9993 26.0098C21.4455 26.0098 24.6651 23.852 27.4016 21.4473C27.3991 21.4443 27.3963 21.4415 27.3938 21.4385C27.2506 21.2693 27.1399 21.0868 27.0618 20.8916C26.9837 20.6964 26.9381 20.5009 26.925 20.3057C26.9251 20.1755 26.9511 20.0387 27.0032 19.8955C27.0552 19.7523 27.1008 19.6155 27.1399 19.4854L26.7297 19.583C26.5084 19.0753 26.2088 18.7302 25.8313 18.5479C25.4537 18.3656 24.9783 18.2679 24.4055 18.2549ZM18.0002 0C8.06565 0 0.0104942 8.04898 0.000244141 17.9814C0.00522995 13.0954 1.9696 14.9879 5.15259 18.1582C5.37351 18.1183 5.60004 18.067 5.8313 18.001C6.19573 17.8969 6.52149 17.7404 6.80786 17.5322L6.69067 17.4346C6.85984 17.4736 7.02932 17.5258 7.19849 17.5908C7.36766 17.6559 7.5306 17.7276 7.68677 17.8057C7.84292 17.8837 8.01242 17.9359 8.19458 17.9619C8.37675 17.9879 8.55276 18.014 8.72192 18.04L9.03442 18.001L8.97583 17.8643C9.15805 17.9163 9.35353 17.9815 9.56177 18.0596C9.76999 18.1377 9.97202 18.1767 10.1672 18.1768C10.2974 18.1768 10.4864 18.1311 10.7336 18.04C10.9809 17.9489 11.2285 17.8382 11.4758 17.708C11.7231 17.5778 11.9446 17.4345 12.1399 17.2783C12.3351 17.1221 12.4328 16.9723 12.4329 16.8291L12.3938 16.7705C12.4589 16.6924 12.5436 16.6207 12.6477 16.5557C12.7518 16.4906 12.8496 16.4254 12.9407 16.3604C13.0317 16.2953 13.1165 16.2236 13.1946 16.1455C13.2727 16.0674 13.3052 15.9762 13.2922 15.8721L13.0774 15.6963L13.5266 15.6377L13.6829 15.0518C13.6568 15.1167 13.5981 15.1429 13.5071 15.1299C13.416 15.1169 13.3443 15.0908 13.2922 15.0518L13.9954 14.6807L13.5071 13.4307C13.6894 12.7536 13.7349 12.2327 13.6438 11.8682C13.5527 11.5036 13.3769 11.2041 13.1165 10.9697C12.8561 10.7354 12.5695 10.501 12.2571 10.2666C11.9446 10.0322 11.6255 9.71317 11.3 9.30957L11.3586 9.0752L10.0696 7.5127L9.77661 7.47363C9.41212 7.47363 9.00173 7.4606 8.54614 7.43457C8.09054 7.40853 7.62804 7.36294 7.15942 7.29785C6.69081 7.23276 6.2283 7.16763 5.77271 7.10254C5.31715 7.03744 4.90018 6.95277 4.52271 6.84863C4.93927 6.35395 5.37569 5.88501 5.8313 5.44238C6.28693 4.99976 6.77544 4.57643 7.29614 4.17285C7.4393 4.22491 7.61528 4.29661 7.82349 4.3877C8.03175 4.47881 8.24023 4.59609 8.44849 4.73926C8.65677 4.88246 8.81959 5.03878 8.93677 5.20801C9.05395 5.37727 9.12557 5.55307 9.15161 5.73535L9.03442 6.10645C9.26872 6.48394 9.52933 6.71837 9.81567 6.80957C10.102 6.90069 10.3952 6.95278 10.6946 6.96582C10.994 6.97884 11.3067 6.97883 11.6321 6.96582C11.9575 6.9528 12.2702 7.01144 12.5696 7.1416L12.8821 6.47754L12.5891 5.34473L12.9211 4.85645L9.54224 3.80176C9.68542 3.43728 9.91999 3.16373 10.2454 2.98145C10.5708 2.7992 10.9291 2.70805 11.3196 2.70801V2.5127L10.2258 2.33691C11.4367 1.73799 12.6934 1.28222 13.9954 0.969727C15.2974 0.657233 16.6321 0.500981 17.9993 0.500977C19.132 0.500977 20.2519 0.611655 21.3586 0.833008C22.4654 1.05436 23.5332 1.37338 24.5618 1.79004C25.5903 2.20669 26.5866 2.72758 27.55 3.35254C28.5135 3.9775 29.3926 4.68073 30.1868 5.46191C29.8483 5.46191 29.5878 5.54662 29.4055 5.71582C29.2233 5.88507 29.0539 6.07393 28.8977 6.28223C28.7415 6.49052 28.5787 6.67939 28.4094 6.84863C28.2402 7.01786 28.0122 7.10901 27.7258 7.12207L27.4133 6.8877L27.4524 6.45801L26.8079 5.54004L27.3157 4.09473C27.2506 4.05568 27.1528 3.99048 27.0227 3.89941C26.8926 3.80834 26.7818 3.76277 26.6907 3.7627C26.3002 3.7627 26.0006 3.78225 25.7922 3.82129C25.5839 3.86034 25.4016 3.932 25.2454 4.03613C25.0891 4.1403 24.9524 4.29005 24.8352 4.48535C24.718 4.68066 24.5357 4.92807 24.2883 5.22754L23.5852 4.68066C23.455 4.73274 23.2466 4.8174 22.9602 4.93457C22.6738 5.05175 22.3808 5.19499 22.0813 5.36426C21.7818 5.53353 21.5279 5.70931 21.3196 5.8916C21.1113 6.07388 21.0006 6.24318 20.9875 6.39941C20.9876 6.59467 21.0592 6.751 21.2024 6.86816C21.3456 6.98532 21.5345 7.08302 21.7688 7.16113C22.0031 7.23924 22.2441 7.29786 22.4915 7.33691C22.7388 7.37597 22.9863 7.42807 23.2336 7.49316C23.481 7.55826 23.6699 7.62338 23.8 7.68848C23.9302 7.75359 24.0084 7.86433 24.0344 8.02051L22.9016 8.3916C23.162 8.61292 23.442 8.81481 23.7415 8.99707C24.0409 9.17933 24.3535 9.34866 24.679 9.50488L24.6008 9.83691L26.3977 10.54V11.0869L26.5344 11.1455L26.4368 10.4619L26.5149 10.4424C26.6059 10.4424 26.6581 10.462 26.6711 10.501C26.6841 10.54 26.6907 10.5857 26.6907 10.6377C26.6907 10.6897 26.6776 10.7419 26.6516 10.7939C26.6256 10.846 26.6191 10.8851 26.6321 10.9111L26.886 10.7744L26.8469 10.8525C26.8469 10.8916 26.8273 10.9503 26.7883 11.0283C26.7493 11.1064 26.6972 11.1781 26.6321 11.2432C26.567 11.3083 26.5149 11.3734 26.4758 11.4385C26.437 11.5032 26.4108 11.5358 26.3977 11.5361C26.3978 11.5752 26.4238 11.6143 26.4758 11.6533C26.5279 11.6923 26.5931 11.7184 26.6711 11.7314C26.7491 11.7445 26.8014 11.764 26.8274 11.79C26.8532 11.8159 26.8532 11.8224 26.8274 11.8096C26.6451 11.8096 26.606 11.8226 26.7102 11.8486C26.8144 11.8747 26.9773 11.9399 27.1985 12.0439C27.4197 12.1481 27.6217 12.2979 27.804 12.4932C27.9861 12.6885 28.0904 12.9751 28.1165 13.3525C28.1165 13.5738 28.1099 13.7888 28.0969 13.9971C28.0839 14.2054 28.0904 14.4203 28.1165 14.6416C28.2987 14.1468 28.5722 13.7692 28.9368 13.5088C29.3013 13.2484 29.7441 13.1182 30.2649 13.1182L31.1047 13.1963L30.6946 13.4697C30.9158 13.4437 31.1439 13.4176 31.3782 13.3916C31.6124 13.3656 31.8536 13.3591 32.1008 13.3721C32.3481 13.3851 32.5697 13.4372 32.7649 13.5283C32.9601 13.6195 33.1557 13.7563 33.3508 13.9385L33.468 14.8174C33.468 15.2339 33.3768 15.5726 33.1946 15.833C33.0123 16.0934 32.6931 16.2301 32.2375 16.2432C31.8471 16.2432 31.4627 16.1845 31.0852 16.0674C30.7077 15.9502 30.3364 15.8134 29.9719 15.6572C30.0891 15.9436 30.2194 16.2172 30.3625 16.4775C30.5057 16.7379 30.61 17.0245 30.675 17.3369L30.4211 17.4541C30.1087 17.2458 29.8221 17.2133 29.5618 17.3564C29.3014 17.4997 29.0474 17.708 28.8 17.9814C28.5527 18.2549 28.2987 18.5349 28.0383 18.8213C27.778 19.1077 27.4979 19.3161 27.1985 19.4463L27.8625 19.7979L29.425 18.9189C29.412 18.945 29.399 19.0036 29.386 19.0947C29.373 19.1858 29.3795 19.2054 29.4055 19.1533L30.1086 17.9619C30.4511 17.9512 30.811 17.9034 31.1887 17.8223C34.1711 14.8622 35.9945 13.2718 35.9993 17.9814C35.989 8.04918 27.9346 0.000324512 18.0002 0ZM25.675 16.126C25.1412 16.126 24.6529 16.2171 24.2102 16.3994C24.3924 16.4645 24.5749 16.5166 24.7571 16.5557C24.9393 16.5947 25.1282 16.6208 25.3235 16.6338C25.5838 16.6338 25.8183 16.6077 26.0266 16.5557C25.9616 16.4516 25.8963 16.3864 25.8313 16.3604C25.7662 16.3343 25.7141 16.2561 25.675 16.126ZM28.3118 15.2471C28.1426 15.2471 27.9536 15.2731 27.7454 15.3252C27.5371 15.3773 27.3286 15.4489 27.1204 15.54C26.9121 15.6312 26.7036 15.7158 26.4954 15.7939C26.2871 15.8721 26.0982 15.9502 25.929 16.0283L26.2415 16.0674C26.3456 16.0804 26.4564 16.0869 26.5735 16.0869C26.7948 16.0869 26.9967 16.0543 27.179 15.9893C27.3612 15.9242 27.5306 15.8395 27.6868 15.7354C27.843 15.6312 27.9993 15.553 28.1555 15.501C28.3117 15.4489 28.4551 15.4098 28.5852 15.3838C28.7153 15.3838 28.8327 15.4099 28.9368 15.4619C29.0408 15.514 29.1452 15.5727 29.2493 15.6377C29.2493 15.5856 29.2949 15.5596 29.386 15.5596C29.2949 15.4685 29.1254 15.3968 28.8782 15.3447C28.631 15.2927 28.442 15.2601 28.3118 15.2471ZM4.22974 7.21973C4.25575 7.33678 4.28839 7.42154 4.32739 7.47363C4.36645 7.52571 4.3925 7.64292 4.40552 7.8252C4.40549 7.94234 4.35991 8.0531 4.2688 8.15723C4.17775 8.26123 4.06118 8.36573 3.91821 8.46973C3.77512 8.5738 3.63162 8.65202 3.48853 8.7041C3.34547 8.75612 3.22152 8.80179 3.11743 8.84082C3.29969 8.55441 3.48205 8.28088 3.66431 8.02051C3.84649 7.76024 4.03455 7.493 4.22974 7.21973ZM4.46411 6.92676C4.46412 7.0307 4.48379 7.10251 4.52271 7.1416H4.40552C4.35368 7.14164 4.31429 7.14815 4.28833 7.16113L4.46411 6.92676Z" fill="white"/>
<path d="M1.28638 15.228C1.1173 15.1751 1.02058 15.1869 0.965088 15.2085C0.913096 15.2288 0.833739 15.2827 0.747314 15.4487C0.559944 15.8086 0.429932 16.5216 0.429932 17.7603C0.429997 27.4638 8.29605 35.3304 17.9993 35.3306C27.7027 35.3306 35.5695 27.4639 35.5696 17.7603C35.5696 16.5217 35.4396 15.8086 35.2522 15.4487C35.1656 15.2824 35.0854 15.2288 35.0334 15.2085C34.9779 15.187 34.8818 15.1753 34.7131 15.228C34.3531 15.3407 33.8557 15.6826 33.2083 16.2495C32.574 16.8048 31.8479 17.5279 31.0305 18.3423C29.4061 19.9607 27.4423 21.9196 25.2551 23.4712C23.0695 25.0216 20.613 26.2007 17.9993 26.2007C15.3857 26.2006 12.9299 25.0216 10.7444 23.4712C8.55696 21.9195 6.59255 19.9608 4.96802 18.3423C4.15066 17.528 3.42547 16.8048 2.79126 16.2495C2.14389 15.6827 1.64644 15.3407 1.28638 15.228Z" stroke="white" stroke-width="0.86"/>
<path d="M26.611 29.915L23.725 27.7347L22.8475 28.2956L25.2449 30.1412L23.1912 31.7425L23.6888 32.3215L26.611 29.915ZM16.822 26.9114L19.2285 33.2624L20.4046 33L17.98 26.5405L16.822 26.9114ZM14.1934 31.7425L12.1398 30.1412L14.5372 28.2956L13.6597 27.7347L10.7737 29.915L13.6958 32.3215L14.1934 31.7425Z" fill="white"/>
</svg>
