<svg width="36" height="36" viewBox="0 0 36 36" fill="none" xmlns="http://www.w3.org/2000/svg">
<path d="M18.9258 35.9766C18.6191 35.9921 18.3105 35.999 18 35.999V36C18.3105 36 18.6191 35.9921 18.9258 35.9766ZM20.7412 35.793C20.5921 35.8158 20.4423 35.8364 20.292 35.8555C20.4423 35.8364 20.5921 35.8158 20.7412 35.793ZM23.0537 35.2793C22.885 35.3286 22.7156 35.3765 22.5449 35.4209C22.7156 35.3765 22.885 35.3286 23.0537 35.2793ZM31.3232 30.1025C31.1885 30.2508 31.0507 30.3963 30.9111 30.54C31.0507 30.3963 31.1885 30.2508 31.3232 30.1025ZM24.4053 18.2549C24.3402 18.2549 24.2034 18.2809 23.9951 18.333C23.891 18.359 23.7835 18.39 23.6729 18.4258L22.9893 18.6699C22.8786 18.7057 22.7712 18.7367 22.667 18.7627C22.4587 18.8148 22.3024 18.8669 22.1982 18.9189C22.1982 19.01 22.1461 19.0687 22.042 19.0947C21.9378 19.1208 21.8792 19.1664 21.8662 19.2314L21.9053 19.3877C21.8662 19.4007 21.7751 19.4463 21.6318 19.5244C21.4886 19.6025 21.3323 19.7002 21.1631 19.8174C20.9938 19.9346 20.8441 20.0387 20.7139 20.1299C20.5837 20.221 20.4925 20.2927 20.4404 20.3447C20.2061 20.3447 19.887 20.4229 19.4834 20.5791C19.0798 20.7353 18.637 20.9307 18.1553 21.165C17.6736 21.3994 17.1982 21.6794 16.7295 22.0049C16.2608 22.3304 15.818 22.656 15.4014 22.9814C14.9848 23.3069 14.6657 23.6325 14.4443 23.958C14.2231 24.2834 14.0928 24.57 14.0537 24.8174L14.5254 25.3154C15.6497 25.7504 16.8103 26.0097 17.999 26.0098C21.4452 26.0098 24.6649 23.852 27.4014 21.4473C27.3988 21.4443 27.3961 21.4415 27.3936 21.4385C27.2504 21.2693 27.1396 21.0868 27.0615 20.8916C26.9834 20.6964 26.9378 20.5009 26.9248 20.3057C26.9248 20.1755 26.9509 20.0387 27.0029 19.8955C27.055 19.7523 27.1006 19.6155 27.1396 19.4854L26.7295 19.583C26.5082 19.0753 26.2085 18.7302 25.8311 18.5479C25.4535 18.3656 24.9781 18.2679 24.4053 18.2549ZM18 0C8.06541 0 0.0102501 8.04898 0 17.9814C0.00498581 13.0954 1.96935 14.9879 5.15234 18.1582C5.37326 18.1183 5.59979 18.067 5.83105 18.001C6.19548 17.8969 6.52125 17.7404 6.80762 17.5322L6.69043 17.4346C6.8596 17.4736 7.02908 17.5258 7.19824 17.5908C7.36742 17.6559 7.53035 17.7276 7.68652 17.8057C7.84267 17.8837 8.01218 17.9359 8.19434 17.9619C8.37651 17.9879 8.55251 18.014 8.72168 18.04L9.03418 18.001L8.97559 17.8643C9.1578 17.9163 9.35328 17.9815 9.56152 18.0596C9.76974 18.1377 9.97178 18.1767 10.167 18.1768C10.2971 18.1768 10.4862 18.1311 10.7334 18.04C10.9807 17.9489 11.2283 17.8382 11.4756 17.708C11.7229 17.5778 11.9444 17.4345 12.1396 17.2783C12.3349 17.1221 12.4326 16.9723 12.4326 16.8291L12.3936 16.7705C12.4586 16.6924 12.5434 16.6207 12.6475 16.5557C12.7515 16.4906 12.8493 16.4254 12.9404 16.3604C13.0315 16.2953 13.1163 16.2236 13.1943 16.1455C13.2724 16.0674 13.305 15.9762 13.292 15.8721L13.0771 15.6963L13.5264 15.6377L13.6826 15.0518C13.6565 15.1167 13.5979 15.1429 13.5068 15.1299C13.4158 15.1169 13.344 15.0908 13.292 15.0518L13.9951 14.6807L13.5068 13.4307C13.6891 12.7536 13.7347 12.2327 13.6436 11.8682C13.5524 11.5036 13.3766 11.2041 13.1162 10.9697C12.8558 10.7354 12.5693 10.501 12.2568 10.2666C11.9444 10.0322 11.6253 9.71317 11.2998 9.30957L11.3584 9.0752L10.0693 7.5127L9.77637 7.47363C9.41187 7.47363 9.00148 7.4606 8.5459 7.43457C8.09029 7.40853 7.6278 7.36294 7.15918 7.29785C6.69057 7.23276 6.22806 7.16763 5.77246 7.10254C5.31691 7.03744 4.89994 6.95277 4.52246 6.84863C4.93903 6.35395 5.37544 5.88501 5.83105 5.44238C6.28668 4.99976 6.77519 4.57643 7.2959 4.17285C7.43906 4.22491 7.61504 4.29661 7.82324 4.3877C8.0315 4.47881 8.23998 4.59609 8.44824 4.73926C8.65653 4.88246 8.81935 5.03878 8.93652 5.20801C9.0537 5.37727 9.12532 5.55307 9.15137 5.73535L9.03418 6.10645C9.26848 6.48394 9.52908 6.71837 9.81543 6.80957C10.1018 6.90069 10.395 6.95278 10.6943 6.96582C10.9937 6.97884 11.3064 6.97883 11.6318 6.96582C11.9573 6.9528 12.2699 7.01144 12.5693 7.1416L12.8818 6.47754L12.5889 5.34473L12.9209 4.85645L9.54199 3.80176C9.68518 3.43728 9.91975 3.16373 10.2451 2.98145C10.5706 2.7992 10.9288 2.70805 11.3193 2.70801V2.5127L10.2256 2.33691C11.4364 1.73799 12.6931 1.28222 13.9951 0.969727C15.2971 0.657233 16.6319 0.500981 17.999 0.500977C19.1318 0.500977 20.2517 0.611655 21.3584 0.833008C22.4651 1.05436 23.5329 1.37338 24.5615 1.79004C25.5901 2.20669 26.5863 2.72758 27.5498 3.35254C28.5132 3.9775 29.3923 4.68073 30.1865 5.46191C29.8481 5.46191 29.5876 5.54662 29.4053 5.71582C29.223 5.88507 29.0537 6.07393 28.8975 6.28223C28.7412 6.49052 28.5784 6.67939 28.4092 6.84863C28.24 7.01786 28.0119 7.10901 27.7256 7.12207L27.4131 6.8877L27.4521 6.45801L26.8076 5.54004L27.3154 4.09473C27.2504 4.05568 27.1526 3.99048 27.0225 3.89941C26.8924 3.80834 26.7815 3.76277 26.6904 3.7627C26.2999 3.7627 26.0003 3.78225 25.792 3.82129C25.5837 3.86034 25.4013 3.932 25.2451 4.03613C25.0889 4.1403 24.9521 4.29005 24.835 4.48535C24.7178 4.68066 24.5355 4.92807 24.2881 5.22754L23.585 4.68066C23.4548 4.73274 23.2464 4.8174 22.96 4.93457C22.6735 5.05175 22.3805 5.19499 22.0811 5.36426C21.7816 5.53353 21.5277 5.70931 21.3193 5.8916C21.111 6.07388 21.0003 6.24318 20.9873 6.39941C20.9873 6.59467 21.059 6.751 21.2021 6.86816C21.3454 6.98532 21.5342 7.08302 21.7686 7.16113C22.0029 7.23924 22.2439 7.29786 22.4912 7.33691C22.7386 7.37597 22.986 7.42807 23.2334 7.49316C23.4807 7.55826 23.6696 7.62338 23.7998 7.68848C23.9299 7.75359 24.0081 7.86433 24.0342 8.02051L22.9014 8.3916C23.1617 8.61292 23.4418 8.81481 23.7412 8.99707C24.0406 9.17933 24.3533 9.34866 24.6787 9.50488L24.6006 9.83691L26.3975 10.54V11.0869L26.5342 11.1455L26.4365 10.4619L26.5146 10.4424C26.6056 10.4424 26.6579 10.462 26.6709 10.501C26.6839 10.54 26.6904 10.5857 26.6904 10.6377C26.6904 10.6897 26.6774 10.7419 26.6514 10.7939C26.6253 10.846 26.6188 10.8851 26.6318 10.9111L26.8857 10.7744L26.8467 10.8525C26.8466 10.8916 26.8271 10.9503 26.7881 11.0283C26.749 11.1064 26.6969 11.1781 26.6318 11.2432C26.5667 11.3083 26.5146 11.3734 26.4756 11.4385C26.4367 11.5032 26.4105 11.5358 26.3975 11.5361C26.3975 11.5752 26.4236 11.6143 26.4756 11.6533C26.5276 11.6923 26.5929 11.7184 26.6709 11.7314C26.7489 11.7445 26.8011 11.764 26.8271 11.79C26.8529 11.8159 26.8529 11.8224 26.8271 11.8096C26.6449 11.8096 26.6058 11.8226 26.71 11.8486C26.8141 11.8747 26.9771 11.9399 27.1982 12.0439C27.4195 12.1481 27.6215 12.2979 27.8037 12.4932C27.9859 12.6885 28.0902 12.9751 28.1162 13.3525C28.1162 13.5738 28.1097 13.7888 28.0967 13.9971C28.0837 14.2054 28.0902 14.4203 28.1162 14.6416C28.2985 14.1468 28.572 13.7692 28.9365 13.5088C29.3011 13.2484 29.7439 13.1182 30.2646 13.1182L31.1045 13.1963L30.6943 13.4697C30.9156 13.4437 31.1437 13.4176 31.3779 13.3916C31.6122 13.3656 31.8533 13.3591 32.1006 13.3721C32.3478 13.3851 32.5694 13.4372 32.7646 13.5283C32.9598 13.6195 33.1554 13.7563 33.3506 13.9385L33.4678 14.8174C33.4678 15.2339 33.3765 15.5726 33.1943 15.833C33.0121 16.0934 32.6928 16.2301 32.2373 16.2432C31.8468 16.2432 31.4624 16.1845 31.085 16.0674C30.7075 15.9502 30.3361 15.8134 29.9717 15.6572C30.0888 15.9436 30.2191 16.2172 30.3623 16.4775C30.5055 16.7379 30.6097 17.0245 30.6748 17.3369L30.4209 17.4541C30.1085 17.2458 29.8219 17.2133 29.5615 17.3564C29.3011 17.4997 29.0472 17.708 28.7998 17.9814C28.5524 18.2549 28.2985 18.5349 28.0381 18.8213C27.7777 19.1077 27.4977 19.3161 27.1982 19.4463L27.8623 19.7979L29.4248 18.9189C29.4118 18.945 29.3988 19.0036 29.3857 19.0947C29.3727 19.1858 29.3792 19.2054 29.4053 19.1533L30.1084 17.9619C30.4509 17.9512 30.8107 17.9034 31.1885 17.8223C34.1708 14.8622 35.9942 13.2718 35.999 17.9814C35.9888 8.04918 27.9343 0.000324512 18 0ZM25.6748 16.126C25.141 16.126 24.6526 16.2171 24.21 16.3994C24.3922 16.4645 24.5746 16.5166 24.7568 16.5557C24.9391 16.5947 25.128 16.6208 25.3232 16.6338C25.5836 16.6338 25.8181 16.6077 26.0264 16.5557C25.9613 16.4516 25.8961 16.3864 25.8311 16.3604C25.766 16.3343 25.7139 16.2561 25.6748 16.126ZM28.3115 15.2471C28.1423 15.2471 27.9534 15.2731 27.7451 15.3252C27.5368 15.3773 27.3284 15.4489 27.1201 15.54C26.9118 15.6312 26.7034 15.7158 26.4951 15.7939C26.2868 15.8721 26.0979 15.9502 25.9287 16.0283L26.2412 16.0674C26.3453 16.0804 26.4561 16.0869 26.5732 16.0869C26.7945 16.0869 26.9965 16.0543 27.1787 15.9893C27.3609 15.9242 27.5303 15.8395 27.6865 15.7354C27.8427 15.6312 27.9991 15.553 28.1553 15.501C28.3114 15.4489 28.4548 15.4098 28.585 15.3838C28.7151 15.3838 28.8324 15.4099 28.9365 15.4619C29.0406 15.514 29.145 15.5727 29.249 15.6377C29.249 15.5856 29.2946 15.5596 29.3857 15.5596C29.2946 15.4685 29.1251 15.3968 28.8779 15.3447C28.6307 15.2927 28.4417 15.2601 28.3115 15.2471ZM4.22949 7.21973C4.2555 7.33678 4.28815 7.42154 4.32715 7.47363C4.36621 7.52571 4.39225 7.64292 4.40527 7.8252C4.40524 7.94234 4.35966 8.0531 4.26855 8.15723C4.17751 8.26123 4.06093 8.36573 3.91797 8.46973C3.77487 8.5738 3.63138 8.65202 3.48828 8.7041C3.34523 8.75612 3.22127 8.80179 3.11719 8.84082C3.29944 8.55441 3.48181 8.28088 3.66406 8.02051C3.84624 7.76024 4.0343 7.493 4.22949 7.21973ZM4.46387 6.92676C4.46388 7.0307 4.48354 7.10251 4.52246 7.1416H4.40527C4.35344 7.14164 4.31405 7.14815 4.28809 7.16113L4.46387 6.92676Z" fill="#023047"/>
<path d="M1.28613 15.228C1.11706 15.1751 1.02034 15.1869 0.964844 15.2085C0.912852 15.2288 0.833495 15.2827 0.74707 15.4487C0.5597 15.8086 0.429688 16.5216 0.429688 17.7603C0.429753 27.4638 8.2958 35.3304 17.999 35.3306C27.7024 35.3306 35.5693 27.4639 35.5693 17.7603C35.5693 16.5217 35.4393 15.8086 35.252 15.4487C35.1654 15.2824 35.0852 15.2288 35.0332 15.2085C34.9777 15.187 34.8816 15.1753 34.7129 15.228C34.3528 15.3407 33.8555 15.6826 33.208 16.2495C32.5738 16.8048 31.8477 17.5279 31.0303 18.3423C29.4059 19.9607 27.4421 21.9196 25.2549 23.4712C23.0692 25.0216 20.6127 26.2007 17.999 26.2007C15.3855 26.2006 12.9297 25.0216 10.7441 23.4712C8.55672 21.9195 6.5923 19.9608 4.96777 18.3423C4.15042 17.528 3.42522 16.8048 2.79102 16.2495C2.14364 15.6827 1.64619 15.3407 1.28613 15.228Z" stroke="#023047" stroke-width="0.86"/>
<path d="M26.611 29.915L23.725 27.7347L22.8475 28.2956L25.2449 30.1412L23.1912 31.7425L23.6888 32.3215L26.611 29.915ZM16.822 26.9114L19.2285 33.2624L20.4046 33L17.98 26.5405L16.822 26.9114ZM14.1934 31.7425L12.1398 30.1412L14.5372 28.2956L13.6597 27.7347L10.7737 29.915L13.6958 32.3215L14.1934 31.7425Z" fill="#023047"/>
</svg>
