<svg width="30" height="19" viewBox="0 0 30 19" fill="none" xmlns="http://www.w3.org/2000/svg">
<path fill-rule="evenodd" clip-rule="evenodd" d="M2.14286 14.2857C2.71118 14.2857 3.25622 14.5115 3.65809 14.9133C4.05995 15.3152 4.28571 15.8603 4.28571 16.4286C4.28571 16.9969 4.05995 17.5419 3.65809 17.9438C3.25622 18.3457 2.71118 18.5714 2.14286 18.5714C1.57454 18.5714 1.02949 18.3457 0.627628 17.9438C0.225765 17.5419 0 16.9969 0 16.4286C0 15.8603 0.225765 15.3152 0.627628 14.9133C1.02949 14.5115 1.57454 14.2857 2.14286 14.2857ZM27.8557 15C28.6457 15 29.2857 15.6343 29.2857 16.4286C29.2857 17.2179 28.65 17.8571 27.8557 17.8571H7.85857C7.67074 17.8577 7.48465 17.8212 7.311 17.7496C7.13734 17.678 6.97954 17.5728 6.84665 17.4401C6.71377 17.3073 6.60843 17.1496 6.53668 16.976C6.46494 16.8025 6.42819 16.6164 6.42857 16.4286C6.42857 15.6393 7.06429 15 7.85857 15H27.8557ZM2.14286 7.14286C2.71118 7.14286 3.25622 7.36862 3.65809 7.77049C4.05995 8.17235 4.28571 8.71739 4.28571 9.28571C4.28571 9.85404 4.05995 10.3991 3.65809 10.8009C3.25622 11.2028 2.71118 11.4286 2.14286 11.4286C1.57454 11.4286 1.02949 11.2028 0.627628 10.8009C0.225765 10.3991 0 9.85404 0 9.28571C0 8.71739 0.225765 8.17235 0.627628 7.77049C1.02949 7.36862 1.57454 7.14286 2.14286 7.14286ZM27.8557 7.85714C28.6457 7.85714 29.2857 8.49143 29.2857 9.28571C29.2857 10.075 28.65 10.7143 27.8557 10.7143H7.85857C7.67074 10.7149 7.48465 10.6783 7.311 10.6067C7.13734 10.5351 6.97954 10.43 6.84665 10.2972C6.71377 10.1645 6.60843 10.0068 6.53668 9.83318C6.46494 9.6596 6.42819 9.47354 6.42857 9.28571C6.42857 8.49643 7.06429 7.85714 7.85857 7.85714H27.8557ZM2.14286 0C2.71118 0 3.25622 0.225764 3.65809 0.627628C4.05995 1.02949 4.28571 1.57454 4.28571 2.14286C4.28571 2.71118 4.05995 3.25622 3.65809 3.65809C3.25622 4.05995 2.71118 4.28571 2.14286 4.28571C1.57454 4.28571 1.02949 4.05995 0.627628 3.65809C0.225765 3.25622 0 2.71118 0 2.14286C0 1.57454 0.225765 1.02949 0.627628 0.627628C1.02949 0.225764 1.57454 0 2.14286 0ZM27.8557 0.714286C28.6457 0.714286 29.2857 1.34857 29.2857 2.14286C29.2857 2.93214 28.65 3.57143 27.8557 3.57143H7.85857C7.67074 3.57199 7.48465 3.53544 7.311 3.46386C7.13734 3.39229 6.97954 3.28711 6.84665 3.15436C6.71377 3.02161 6.60843 2.86391 6.53668 2.69032C6.46494 2.51674 6.42819 2.33069 6.42857 2.14286C6.42857 1.35357 7.06429 0.714286 7.85857 0.714286H27.8557Z" fill="#023047"/>
</svg>
