<svg width="40" height="40" viewBox="0 0 40 40" fill="none" xmlns="http://www.w3.org/2000/svg">
<path fill-rule="evenodd" clip-rule="evenodd" d="M32.7287 1.08459C32.6678 0.838955 32.5427 0.613922 32.3662 0.432509C32.1898 0.251095 31.9683 0.119813 31.7244 0.0520938C31.4806 -0.0156255 31.2231 -0.0173512 30.9784 0.0470932C30.7337 0.111538 30.5104 0.239839 30.3316 0.418871L24.6173 6.13316C24.443 6.30779 24.3169 6.52459 24.2514 6.76242C24.1858 7.00026 24.1829 7.25102 24.243 7.4903L25.2716 11.616L25.2316 11.656L18.4001 18.4874C18.0216 18.8937 17.8156 19.4309 17.8254 19.9861C17.8352 20.5412 18.06 21.0709 18.4527 21.4635C18.8453 21.8561 19.3749 22.081 19.9301 22.0908C20.4852 22.1006 21.0225 21.8945 21.4287 21.516L28.2659 14.6874L28.3059 14.6446L32.4287 15.676C32.668 15.7361 32.9188 15.7332 33.1566 15.6677C33.3944 15.6021 33.6112 15.476 33.7859 15.3017L39.5001 9.58744C39.6799 9.40864 39.8089 9.18522 39.8737 8.94011C39.9386 8.695 39.9371 8.43703 39.8693 8.19271C39.8016 7.94838 39.67 7.72649 39.4881 7.54983C39.3062 7.37316 39.0806 7.24809 38.8344 7.18744L33.9516 5.9703L32.7287 1.08459ZM20.8201 2.1703C20.8594 2.73707 20.672 3.29623 20.2991 3.72485C19.9262 4.15347 19.3983 4.41647 18.8316 4.45601C15.8464 4.66289 12.9834 5.72239 10.5827 7.50862C8.18203 9.29486 6.3446 11.7327 5.28875 14.5326C4.2329 17.3324 4.00302 20.3765 4.62642 23.3032C5.24982 26.2298 6.7003 28.916 8.8055 31.0425C10.9107 33.169 13.5821 34.6464 16.5024 35.2993C19.4226 35.9521 22.4689 35.7529 25.2792 34.7253C28.0895 33.6977 30.5458 31.8849 32.3561 29.5023C34.1664 27.1197 35.2547 24.2675 35.4916 21.2846C35.5367 20.7178 35.8051 20.1921 36.2377 19.8232C36.6704 19.4543 37.2319 19.2724 37.7987 19.3174C38.3655 19.3625 38.8912 19.6309 39.2601 20.0636C39.629 20.4963 39.8109 21.0578 39.7659 21.6246C39.4635 25.4252 38.0765 29.0592 35.7696 32.0947C33.4627 35.1302 30.3329 37.4397 26.7521 38.7489C23.1713 40.058 19.2899 40.3116 15.5691 39.4798C11.8484 38.6479 8.44461 36.7654 5.76224 34.0559C3.07987 31.3465 1.23166 27.924 0.437173 24.1951C-0.357311 20.4661 -0.0646645 16.5875 1.28034 13.02C2.62535 9.45249 4.96618 6.34607 8.02472 4.06978C11.0833 1.7935 14.731 0.443048 18.5344 0.178871C19.1012 0.139617 19.6604 0.327043 20.089 0.699943C20.5176 1.07284 20.7806 1.60355 20.8201 2.1703ZM18.9001 11.5932C19.0028 11.8552 19.0528 12.135 19.0474 12.4164C19.0419 12.6978 18.9811 12.9754 18.8683 13.2333C18.7555 13.4912 18.5931 13.7243 18.3902 13.9194C18.1873 14.1145 17.948 14.2677 17.6859 14.3703C16.7488 14.7379 15.9182 15.3331 15.269 16.1023C14.6198 16.8715 14.1725 17.7903 13.9675 18.7757C13.7625 19.7612 13.8064 20.7822 14.0951 21.7464C14.3837 22.7106 14.9082 23.5877 15.6209 24.2984C16.3337 25.0091 17.2123 25.531 18.1774 25.8168C19.1425 26.1027 20.1636 26.1436 21.1484 25.9358C22.1333 25.7279 23.0508 25.278 23.8181 24.6265C24.5853 23.9751 25.1782 23.1427 25.543 22.2046C25.6451 21.9423 25.7978 21.7027 25.9924 21.4995C26.1871 21.2962 26.4199 21.1333 26.6775 21.02C26.9351 20.9067 27.2125 20.8453 27.4939 20.8392C27.7752 20.8331 28.055 20.8825 28.3173 20.9846C28.5796 21.0866 28.8192 21.2394 29.0224 21.434C29.2256 21.6287 29.3886 21.8614 29.5019 22.1191C29.6151 22.3767 29.6766 22.6541 29.6827 22.9354C29.6887 23.2168 29.6393 23.4966 29.5373 23.7589C28.9141 25.3608 27.9016 26.7822 26.5911 27.8945C25.2807 29.0069 23.7137 29.7751 22.0318 30.1297C20.3499 30.4843 18.6061 30.4141 16.9582 29.9256C15.3102 29.437 13.8099 28.5454 12.5931 27.3314C11.3762 26.1174 10.4811 24.6193 9.98869 22.9724C9.49625 21.3256 9.42201 19.582 9.77268 17.8993C10.1233 16.2166 10.8879 14.6478 11.9971 13.3347C13.1064 12.0217 14.5254 11.0058 16.1259 10.3789C16.6548 10.1724 17.2441 10.1843 17.7642 10.412C18.2844 10.6397 18.693 11.0645 18.9001 11.5932Z" fill="#6B6D05"/>
</svg>
